<mxfile host="app.diagrams.net" modified="2022-07-31T10:09:46.587Z" agent="5.0 (Windows NT 10.0; Win64; x64) AppleWebKit/537.36 (KHTML, like Gecko) Chrome/103.0.0.0 Safari/537.36" etag="T1sXZSQPEmoVNGtakDzx" version="20.2.2" type="github">
  <diagram id="dsKl4NNGpcCIsFhgakvI" name="第 1 页">
    <mxGraphModel dx="1102" dy="582" grid="1" gridSize="10" guides="1" tooltips="1" connect="1" arrows="1" fold="1" page="1" pageScale="1" pageWidth="827" pageHeight="1169" math="0" shadow="0">
      <root>
        <mxCell id="0" />
        <mxCell id="1" parent="0" />
        <mxCell id="Uc10ucgCtJhIh81tajJU-1" value="" style="sketch=0;aspect=fixed;html=1;points=[];align=center;image;fontSize=12;image=img/lib/mscae/Cache_Redis_Product.svg;" vertex="1" parent="1">
          <mxGeometry x="120" y="190" width="50" height="42" as="geometry" />
        </mxCell>
        <mxCell id="Uc10ucgCtJhIh81tajJU-2" value="" style="sketch=0;aspect=fixed;html=1;points=[];align=center;image;fontSize=12;image=img/lib/mscae/Cache_including_Redis.svg;" vertex="1" parent="1">
          <mxGeometry x="420" y="200" width="50" height="50" as="geometry" />
        </mxCell>
      </root>
    </mxGraphModel>
  </diagram>
</mxfile>
